<svg xmlns="http://www.w3.org/2000/svg" width="175" height="42" fill="none" viewBox="0 0 175 42"><path fill="currentColor" d="M42.3 25.11h5.5c0 2.6 1.6 3.8 4.7 3.8 2.8 0 4.1-1.2 4.1-2.8 0-2-2.2-2.9-4.9-3.8-4-1.4-9-3.1-9-9 0-5.4 4.5-8.2 9.1-8.2 4.9 0 9.5 2.8 9.5 9.1h-5.5c0-2.4-1.4-3.7-4-3.7-2.3 0-3.6 1.2-3.6 2.8 0 2 1.9 3 4.5 3.9 4.1 1.4 9.4 2.9 9.4 8.9 0 5.4-4.4 8.2-9.6 8.2-5.4 0-10.2-2.9-10.2-9.2m44.8-1.4c0 6-4.4 10.6-9.8 10.6-2.9 0-5.1-1.1-6.5-2.9v10.4h-5.2v-28.1h5.2v2.3c1.4-1.8 3.6-2.9 6.5-2.9 5.4 0 9.8 4.7 9.8 10.6m-5.2 0c0-3.4-2.4-5.7-5.6-5.7-3.1 0-5.4 2.1-5.5 5.3v.7c.2 3.2 2.5 5.3 5.5 5.3 3.2.1 5.6-2.2 5.6-5.6m7.8 0c0-6 4.7-10.6 10.6-10.6s10.6 4.6 10.6 10.6-4.7 10.6-10.6 10.6-10.6-4.6-10.6-10.6m16 0c0-3.3-2.4-5.5-5.5-5.5s-5.4 2.3-5.4 5.5 2.4 5.5 5.4 5.5c3.2.1 5.5-2.2 5.5-5.5m18.9-4.5h-3.5v15.1h-5.2v-15.1h-3.5v-5h3.5v-6.4h5.2v6.4h3.5zm13.4 0h-3.5v15.1h-5.2v-15.1h-3.5v-5h3.5v-6.4h5.2v6.4h3.5zm12.2 10.8c1.8 0 3.5-.9 4.1-2h5.1c-1.2 4.1-4.8 6.3-9.3 6.3-6.5 0-10.8-4.6-10.8-10.6s4.3-10.6 10.6-10.6c5.9 0 10 4.7 10 10.6 0 .8 0 1.4-.2 2.1h-14.9c.6 2.9 2.8 4.2 5.4 4.2m4.6-8.2c-.6-2.9-2.7-4-4.9-4-2.8 0-4.6 1.5-5.3 4zm19.3-7.8v5.8c-2.7-.3-5.5.9-5.5 4.8v9.9h-5.2v-20.1h5.2v3c1-2.4 3.1-3.4 5.5-3.4M11.8 6.81c-4.5 1.7-7.7 6.1-7.7 11.3 0 6.7 5.4 12.1 12.1 12.1s12.1-5.4 12.1-12.1c0-2.1-.5-4-1.4-5.7l3.8-1.5c1.1 2.2 1.7 4.6 1.7 7.2 0 8.9-7.3 16.2-16.2 16.2S0 27.01 0 18.11c0-6.9 4.3-12.7 10.3-15.1"/><path fill="#ee9e2c" d="M19.2 20.31c0 2.6-2.1 4.8-4.8 4.8-2.6 0-4.8-2.1-4.8-4.8 0-2.6 2.1-4.8 4.8-4.8s4.8 2.2 4.8 4.8m.4-7.7c0 1-.8 1.9-1.9 1.9s-1.9-.8-1.9-1.9c0-1 .8-1.9 1.9-1.9s1.9.8 1.9 1.9m10.6-4.2c-2.9-7-11-10.3-18-7.3l1 2.3c2.8-1.2 5.9-1.2 8.6 0 2.7 1.1 4.9 3.3 6.1 6z"/><path fill="#ee9e2c" d="m13.9 5.61 1 2.3c3.2-1.3 6.9.2 8.2 3.3l2.3-1c-1.8-4.4-7-6.5-11.5-4.6q.15 0 0 0"/></svg>