<svg xmlns="http://www.w3.org/2000/svg" width="24" height="24" fill="currentColor" viewBox="0 -960 960 960"><path d="M200-200v-560 454-85zm0 80q-33 0-56.5-23.5T120-200v-560q0-33 23.5-56.5T200-840h560q33 0 56.5 23.5T840-760v320h-80v-320H200v560h280v80zm494 40L552-222l57-56 85 85 170-170 56 57zM348.5-451.5Q360-463 360-480t-11.5-28.5T320-520t-28.5 11.5T280-480t11.5 28.5T320-440t28.5-11.5m0-160Q360-623 360-640t-11.5-28.5T320-680t-28.5 11.5T280-640t11.5 28.5T320-600t28.5-11.5M440-440h240v-80H440zm0-160h240v-80H440z"/></svg>