<svg xmlns="http://www.w3.org/2000/svg" width="800" height="578" fill="none" viewBox="0 0 800 578"><path fill="#1f429b" d="M288.889 0h-200A88.89 88.89 0 0 0 0 88.889v200h288.889zM185.267 206.489l-41.823-30.378-41.822 30.378 15.978-49.156-41.822-30.4h51.689l15.977-49.155 15.978 49.155h51.689l-41.822 30.4z"/><path fill="#eee" d="M711.111 0H288.889v288.889H800v-200A88.89 88.89 0 0 0 711.111 0"/><path fill="#d42d27" d="M0 288.889v200a88.89 88.89 0 0 0 88.889 88.889H711.11A88.893 88.893 0 0 0 800 488.889v-200z"/><path fill="#fff" d="m159.422 126.933-15.978-49.156-15.978 49.156H75.777l41.823 30.4-15.978 49.155 41.822-30.377 41.822 30.377-15.978-49.155 41.823-30.4z"/></svg>