<svg xmlns="http://www.w3.org/2000/svg" width="24" height="24" fill="none" viewBox="0 0 24 24"><path fill="currentColor" d="M2 10q0-2.5 1.112-4.587A10.16 10.16 0 0 1 6.1 1.95l1.175 1.6a8.1 8.1 0 0 0-2.387 2.775Q4 8 4 10zm18 0q0-2-.887-3.675a8.1 8.1 0 0 0-2.388-2.775l1.175-1.6q1.875 1.375 2.988 3.463Q22 7.499 22 10zM4 19v-2h2v-7q0-2.074 1.25-3.687T10.5 4.2v-.7q0-.624.438-1.062A1.45 1.45 0 0 1 12 2q.624 0 1.063.438.437.437.437 1.062v.7q2 .5 3.25 2.113T18 10v7h2v2zm8 3q-.825 0-1.412-.587A1.93 1.93 0 0 1 10 20h4q0 .825-.588 1.413A1.93 1.93 0 0 1 12 22m-4-5h8v-7q0-1.65-1.175-2.825T12 6 9.175 7.175 8 10z"/></svg>