<svg xmlns="http://www.w3.org/2000/svg" width="800" height="578" fill="none" viewBox="0 0 800 578"><path fill="#0038a8" d="M0 488.889a88.89 88.89 0 0 0 88.889 88.888H711.11A88.89 88.89 0 0 0 800 488.889v-22.223H0zm0-177.778h800V400H0z"/><path fill="#eee" d="M0 400h800v66.667H0z"/><path fill="#0038a8" d="M800 88.889A88.89 88.89 0 0 0 711.111 0H355.556v88.889zm-444.444 66.667H800v88.888H355.556z"/><path fill="#eee" d="M355.556 88.889V0H88.889A88.89 88.89 0 0 0 0 88.889V311.11h800v-66.667H355.556v-88.888H800V88.889z"/><path fill="#ffd983" d="M288.889 155.555a111.112 111.112 0 1 0-222.224 0 111.112 111.112 0 0 0 222.224 0"/><path fill="#ffcc4d" d="M266.666 155.555a88.888 88.888 0 1 0-177.776 0 88.888 88.888 0 0 0 177.776 0"/><path fill="#ffac33" d="m177.778 13.267 14.067 89.8 57.089-70.734-32.734 84.8L301 84.4l-70.733 57.089 89.8 14.066-89.8 14.067L301 226.711l-84.8-32.733 32.734 84.8-57.089-70.734-14.067 89.8-14.067-89.8-57.088 70.734 32.733-84.8-84.8 32.733 70.733-57.089-89.8-14.067 89.8-14.066-70.733-57.09 84.8 32.734-32.733-84.8 57.088 70.734z"/><path fill="#c1694f" d="M244.445 155.555a66.665 66.665 0 1 0-133.334 0 66.667 66.667 0 0 0 133.334 0"/><path fill="#ffac33" d="M129.645 155.644a47.857 47.857 0 0 1 47.844-47.867 47.854 47.854 0 0 1 47.867 47.845 47.86 47.86 0 0 1-47.845 47.866 47.857 47.857 0 0 1-47.866-47.844"/></svg>